<?xml version="1.0" encoding="UTF-8"?><svg id="Layer_1" xmlns="http://www.w3.org/2000/svg" viewBox="0 0 165.16 225.43"><defs><style>.cls-1{fill:#fff;}</style></defs><path d="M64.43,73.59l5-3.11c8.25-3.82,16.14-8.19,23.45-13.6,7.35-5.45,19.48-17.46,29.28-10.22,13.48,9.95.67,40.7-2.82,53.5-2.44,8.94-3.49,14.52-7.48,23.13-4.99,10.78-10.54,22.26-16.44,32.55-6.38,11.12-14.04,19.71-15.63,33.05-.65,5.41-1.22,11.77,4.35,14.56,1.45.72,7.67,3.44,8.96,3.59,2.12.26,4.88-1.29,6.41-2.72,5.48-5.13,12.97-14.32,10.78-23.2-.26-1.04-1.49-5.53-3.58-10.73-.65-1.62-1.36-3.24-1.26-5.46.11-2.38,1.13-5.33,2.65-6.31,3.16-2.03,10.91,2.83,19.11,12.04,6.77,7.11,12.06,8.42,15.74,8.2,4.53-.27,8.18-2.2,16.25-2.73,1.99-.13,5.17-.54,5.6,1.77,1.73,9.3-2.91,11.75-11.14,12.9-9.15,1.28-18.47.25-27.68.8-5.99,12.77-9.67,24.67-23.89,30.31-20.83,8.25-38.72,2.32-42.72-20.96-2.57-14.95,4.11-39.25,6.8-54.75,1.83-10.55,2.48-20.24,5.91-30.52,4.82-14.48,12.09-28.01,16.23-42.7-3.1,1.84-6.14,3.8-9.28,5.56-2.03,1.14-4.52,1.94-6.43,3.06-3.95,2.32-13.04,8.68-15.83,12.03-3,3.6-4.7,9.04-6.98,13.22-3.43,6.28-9.38,16.68-13.71,22.11-3.09,3.88-20.02,15.01-24.8,15.61-5.54.69-8.18-2.41-9.93-7.16-3.28-8.91-.23-12,5.67-18.22,7.4-7.81,15.22-12.3,23.83-18.42,8.24-5.85,13.35-8.85,18.52-17.91.79-1.38,4.39-7.87,3.46-9.09-5.22-.41-9.65,2.98-14.93,3.76-10.96,1.61-18.14-6.94-19.94-17.03C14.19,39.32,38.71,5.09,59.58.63c9.62-2.05,20.13.63,21.08,11.9.66,7.92-3,23.59-6.57,30.77-2.92,5.87-6.22,13.91-8.22,20.26-1.01,3.2-2.07,6.7-1.44,10.04ZM62.52,16.42c-.39-.39-1.67-.45-2.23-.39-2.73.26-10.71,6.28-12.72,8.43-1.06,1.13-1.86,2.72-2.9,3.84-7.76,8.34-15.05,14.64-15.48,27.38-.1,2.98,1.34,8.15,4.19,9.62,3.96,2.04,11.85-3.37,14.36-6.39,2.25-2.7,10.41-17.94,11.04-21.11,1.02-5.12,1.17-5.16,3.04-9.82,1.35-3.38,2.08-8.13.7-11.55ZM106.61,81.61c-1.98.34-6.65,6.19-7.95,7.99-3.13,4.31-3.12,4.78-4.29,9.79s-4.79,10.97-6.67,16.29-7.45,24.41-5.35,29.24c.15.35.27.69.61.91,1.15.08,3.41-5.16,3.89-6.21,5.57-12.39,11.6-26.49,16.18-39.23,1.35-3.75,4.86-13.16,5.06-16.68.07-1.17-.05-2.34-1.47-2.1Z"/><path class="cls-1" d="M39.85,101.82c3.04-.63.8,3.6.14,5.04-3.84,8.38-14.81,21.96-22.93,26.36-1.89,1.03-7.38,2.74-6.7-.87.54-2.9,7.58-11.25,9.82-13.77,3.34-3.76,15.26-15.86,19.68-16.77Z"/></svg>