<?xml version="1.0" encoding="UTF-8"?><svg id="Layer_1" xmlns="http://www.w3.org/2000/svg" viewBox="0 0 1132.44 915.29"><path d="M868.07,672c-20.91,13.93-38.24,33.52-66.31,22.14-12.6-5.11-24.6-14.44-36.38-21.26,5.89-6.95,12.09-13.55,17.42-20.97,11.33-15.76,39.6-62.46,8.62-72.24-14.06-4.44-26.54,2.14-40.44.3,8.43-25.38,19.4-50.65,26.94-76.28,4.37-14.85,12.56-43.33.53-55.76-10.59-10.94-29.91,1.96-38.46,10.3-11.52,11.24-22.65,47.44-28.12,63.78-6.78,20.24-9.29,34.7-13.22,55.36-2.9,15.24-8.8,28.47-13.17,43.07-5.62,18.74-9.98,38.05-11.33,57.61-9.1-10.82-18.39,3.69-26.41,8.26-.77,0-8.32-6.16-9.29-7.2-12.22-12.94-9.15-45.97-12.4-63.04-1.91-10.04-14.59-22.59-23.3-27.46-16.63-9.32-23.7,2.91-37.21,8.64-7.34,3.12-14.23,4.61-21.51,8.67-25.68,14.36-46.38,53.46-48.61,82.4l-10.96,8.71c-1.02-.06-8.79-7.04-9.93-8.37-11.2-13-8-45.62-11.07-62.31-2.13-11.57-22.29-31.7-34.53-31.3-9.09.3-15.49,7.7-23.24,11.11-4.51,1.99-9.77,3.01-14.37,4.84-22.59,8.96-34.86,24.98-46.14,45.77-6.13,11.3-11.4,23.4-12.71,36.33-14.07,5.95-23.36,4.73-29.09,2.73-15.13-5.28-15.91-19.7-35.14-26.97-3.06-1.16-11.22-4.14-21.42-3.03-6.9.75-12.29,3.12-22.14,7.44-11.25,4.94-17.14,8.96-22.51,7.55,4.64-7.76,10.13-15.22,14.66-22.72,14.09-23.32,30.35-52.69,41-77.66,5.25-12.33,7.33-25.4,11.2-38.18,7.46-24.62,19.38-49.17,15.25-75.6-4.37-27.93-26.03-29.54-46.68-15.49-21.33,14.52-24.36,38.05-32.89,60.39-10.66,27.92-26.29,54.51-32.54,84.06-2.51,11.85-3.65,24.01-5.92,35.92-6.82,35.73-8.24,72.31-13.87,108.25-.96,6.11-2.94,18.34,3.79,29,1.51,2.39,5.58,8.07,16.12,13.05,13.39,6.32,46.02,15.68,74.53-4.12,28.91-20.08,30.45-54.09,30.56-57.87,19.5-.26,39.1.97,58.47-1.27,2.25,10.02,4.76,21.25,11.75,29.05,3.62,4.04,13,11.96,17.97,13.58,6.4,2.09,6.98.25,12.63-.79,14.28-2.61,21.2-2.8,34.08-10.5,8.86-5.3,19.62-11.59,24.6-20.67,3.31-6.03,7.2-21.24,13.78-23.94,8.19-3.37,10.93,7.88,15.64,12.13,5.14,4.64,13.6,8.01,20.56,6.23,2.61-.67,13.44-8.82,14.38-7.91.93,5,2.74,11.35,5.12,15.81,3.7,6.92,19.96,21.62,28.12,21.25,10.17-3.36,21.36-3.26,31.22-7.25,6.16-2.49,26.89-15.78,30.88-20.56,5.97-7.17,7.16-16.7,12.08-24.28,10.36-15.95,14.94,1.06,22.3,7.09,3.87,3.16,9.67,5.85,14.72,5.9,8.22.09,21.78-11.75,27.07-17.85v11.32c0,3.51,4.88,11.85,7.26,14.69,6.85,8.15,19.46,11.52,25.33.75,1.56-12.57,2.21-24.55,8.9-35.68,5.11-8.49,9.39-8,17.73-3.98,18.33,8.85,37.31,22.93,55.58,32.91,10.42,5.7,13.5,8.18,26.22,7.45,22.78-1.29,48.18-13.77,63.1-30.88,5.18-5.94,14.16-16.46,7.79-24.26-4.79-5.86-12.01.76-16.59,3.81ZM208.48,572.94c3.6-9.25,9.43-18.4,12.01-27.77.49-1.77.16-3.77.82-6.04,1.62-5.61,16.94-25.75,22.48-26.94.92-.2,2.03-.34,2.63.54.59,1.62.4,3.36.14,5.02-1.27,8.05-7.21,22.75-10.3,30.85-8.98,23.58-21.45,53.91-32.85,76.2-1.4,2.74-6.21,11.83-7.41,4.17-1.98-12.69,7.57-43.4,12.48-56.02ZM246.81,738.58c-11.21,11.94-27.62,9.9-31.27,9.44-4.69-.58-14.45-2.65-21.66-9.95-8.36-8.46-2.3-33.54,1.56-43.76.02-.06.05-.13.08-.19,10.44,1.42,31.54-5.37,33.76-5.33.75.01,1.65.04,3.29.05,6.59.04,6.97-.38,8.98.19,3.49.98,5.52,3.67,7.37,6.14,5.44,7.28,6.19,15.37,6.33,17.64.18,2.76,1.01,15.71-8.44,25.77ZM420.17,704.31c-6.61,11.69-6.01,15.46-17.38,25.15-8.49,7.24-20.2,11.11-31.37,8.08-9.17-2.48-8.43-18.42-10.32-26.03-.76-3.04-2.78-6.39-3.16-9.18-1.65-12.04,10.11-37.23,16.8-47.55,3.04-4.68,15.83-21.69,20.68-22.58,5.06-.93,9.88,6.89,11.49,10.88,1.86,4.61,1.91,9.67,4.59,13.93,4.63,7.38,16.21,12.38,17.06,21.35,1.26,13.2-2.78,16.02-8.39,25.95ZM434.7,647.18c-1.59-.76-1.93-3.26-2.39-4.81-1.05-3.48-3.31-12.51-1.88-15.59.44-.96,1.01-1.79,2.21-1.55,2.47,7.07,2.12,14.56,2.06,21.94ZM583.22,695.17c-3.02,5.79-3.87,10.56-8.21,15.8-10.64,12.85-22.25,19.88-39.63,16.97-9.39-1.57-8.85-17.13-10.56-24.42-.83-3.54-3.18-7.7-3.6-10.8-1.57-11.44,9.1-35.68,15.17-45.75,2.9-4.81,16.25-23.1,20.96-24.33,5.48-1.43,9.95,5.41,11.95,9.67,1.86,3.97,1.95,7.91,3.45,11.63,3.74,9.26,18.24,14.95,19.09,24.8,1.08,12.5-3.55,16.7-8.62,26.42ZM597.3,636.9c-1.17-.31-1.69-2.77-2.02-3.81-.74-2.35-4.96-18.05-1.07-18.12,1.46.97,3.09,6.42,3.09,7.87v14.06ZM735.86,649.65c-1.3-.36-3.16-2.15-3.41-3.53-1.11-6.07,8.62-20.22,14.92-21.44,3.64-.71,7.51,2.86,7.76,6.4.47,6.64-12.85,20.35-19.27,18.58Z"/><path d="M332.43,578.2c7-4.36,18.95-11.72,23.95-17.89,6.99-8.62,15.15-22.73,20.98-32.52,5.27-8.83,9.08-17.95,14-26.46,11.69-20.23,52.65-37.14,73.05-49.74,4.62-2.85,8.95-6.13,13.3-9.38,19.72,15.91,46.69,23.77,70.87,13.27,12.24-5.31,39.63-25.2,46.96-36.04,3.74-5.54.56-8.65-3.04-12.97,5.8-2.41,17.9-6.75,21.17-12.11,2.07-3.4,3.73-10.34,4.85-14.36,2.22-8.01,3.89-16.27,4.97-24.52l.52-.85c1.94-1.41,17.88,2.9,21.67,3.12,3.03.17,10.14-1.7,11.66,1.38.77,1.54.42,10.9.36,13.41-.57,24.68-4.56,37.63,9.98,59.92,5.65,8.66,7.69,10.57,18.43,11.06,27,1.24,46.49-5.87,68.1-20.46,5.39-3.63,10.27-8.14,15.63-11.83,5.4,4.35,10.09,9.53,15.91,13.61,15.66,10.98,26.84,15.18,45.67,8.19,9.91-3.68,41.05-26.82,45.47-36.16,3.15-6.66,2.33-18.12-7.42-16.32-4.33.8-14.77,11.22-19.09,14.51-12.86,9.78-33.67,23.03-48.65,11.05-6.22-4.97-20.35-26.71-20.61-34.32-.17-4.87,8.11-17.35,11-21.94,8.71-13.85,18.76-26.8,29.39-39.2,18.93-39.22,60.24-111.54,49.43-155.46-7.79-31.65-33.58-13.25-49.63-.41-13.03,10.41-37.52,31.89-45.07,46.16-6.86,12.97-13.13,47.93-15.46,63.41-2.86,18.95-2.09,35.87-2.92,54.69-.43,9.76-2.37,19.67-2.8,29.43-.66,14.82-.22,30.29,4.08,44.5-.63,2.09-26.59,19.17-30.35,21.14-7.65,4.01-16.19,6.5-24.02,9.97-3.56-.18-12.13-11.39-14.05-14.67-12.41-21.16,4.79-57.99,8.59-80.32,1.12-6.58-.11-11.04-5.01-15.84-11.33-11.1-22.84,6.98-32.5,8.57-6.8,1.12-10.53-6.78-11.01-12.39-1.34-15.54,2.44-32.28,1.43-48.06-.71-11.08-2.36-14.89-14.21-15.14-7.87-.17-12.3,1.19-16.36,7.96-12.03,20.06-8.03,30.74-12.31,51.47-4.6,22.25-15.79,45.58-21.58,68.27-2.64,10.36-5.25,21.07-4.24,31.77-20.68,5.88-39.7,33.47-61.4,35.66-6.81.69-15.06-5.89-18.68-11.36-2.45-3.69-1.67-6.33-3.06-10-1.51-3.99-5.64-3.5-6.48-9.96-1.71-13.11,8.24-18.89,10.35-29.07.74-3.58.59-7.08,1.47-10.88,2.16-9.41,10.7-19.71,1.37-28.11-8.56-7.71-35.39-10.91-41.17,1.36-1.11,2.37-1.67,6.15-2.17,8.8-2.63,13.88-6.83,46.11-4.84,59.27.78,5.16,3.02,10.18,5.02,14.93-.61,1.25-20.46,13.69-23.25,15.21-9.72,5.28-21.06,8.79-29.96,15.65-.97-14.86,7.33-28.09,12.36-41.47,2.49-6.62,3.42-9.05,6.51-15.44,10.06-20.84,27.54-77.71-9.01-81.54-45.06-4.72-88.85,52.36-95.98,92.48-4.8,26.99,7.66,58.61,40.17,51.81,4.58-.96,20.91-8.35,24.03-6.23,1.99,1.35-2.17,9.5-3.11,11.37-11.14,22.13-24.58,29.48-44.05,43.07-10.73,7.49-21.49,13.17-31.45,22.05-15.91,14.2-29.55,26.32-16.9,48.48,9.27,16.24,28.11,3.28,39.16-3.6ZM788.22,276.71c1.91-8.99,3.32-10.09,7.23-17.46,2.18-4.1,1.05-6.69,1.57-10.78,1.12-8.79,6.45-13.94,10.32-21.23,3.93-7.38,7.6-17.31,12.63-23.72,1.57-2,7.93-9.44,10.41-6.75,2.29,2.47.42,8.46-.34,11.33-2.89,10.85-8.59,22.69-12.54,33.41-4.31,11.69-19.01,56.6-28.8,61.73-.69.36-1.29.45-2.05.34-2.34-8.11-.2-18.59,1.57-26.89ZM368.62,437.44c-9.56,5.17-17.39,6.92-22.06-4.93-4.06-10.29,1.48-27.17,6.39-36.8,5.01-9.85,30.06-35.26,39.55-41.39,2.95-1.9,13.01-8.28,15.98-5.3,2.48,2.49,1.28,11.06.66,14.39-1.46,7.91-6.09,13.54-7.98,21.52-2.41,10.18-5.04,15.65-10,24.98-6.1,11.47-10.59,21.08-22.54,27.53ZM308.32,565.07c3.75-11.55,41.71-49.75,53.18-54.5,2.28-.95,5.33-2.3,5.32,1.14,0,5.12-12.81,24.06-16.52,28.82-6.21,7.95-27.47,30.07-37.43,30.5-.8.03-4.79-1.12-4.99-1.43-.61-.95.07-3.38.44-4.52Z"/><path d="M497.24,244.03c2.2,6.3,6.49,16.52,11.54,19.28.87.4,1.61.45,2.23.24,2.11-.7,2.26-4.9,2.45-9.35.2-4.63.3-6.94-.77-9.14-1.68-3.45-3.97-3.3-4.5-6.05-.58-3,1.59-6.13,3.75-7.76.76-.57,3.33-2.38,5.97-1.8,2.78.61,4.71,3.58,5.94,5.96,1.71,3.42,3.48,3.44,6.73,1.36,2.18-1.31,4.71-2.63,6.96-2.38,4.85.39,7.49,6.53,6.3,11.21-1.14,5.15-6.11,7.78-11.23,11.68-4.45,3.47-9.15,6.96-13.47,10.49-7.06,6.34-1.07,7.83,4.14,5.15,14.84-8.4,40.91-13.18,37.65-36.67-1.29-7.06-5.64-14.31-10.98-18.39-4.64-3.73-10.2-2.23-15.34-.26-4.22,1.47-6.88.2-8.79-4.07-1.97-4.88-5.56-8.24-9.89-9.33-3.68-.92-7.04.15-8.37.67-8.39,3.28-11.16,13.31-12.07,16.62-2.79,10.13.24,18.9,1.76,22.52Z"/></svg>