<?xml version="1.0" encoding="UTF-8"?><svg id="Layer_1" xmlns="http://www.w3.org/2000/svg" viewBox="0 0 650.74 457"><path d="M226.5,195.16c.82,6.35,4.65,7.04,6.97,15.52,1.95,7.15.23,10.35,2.53,11.72,3.34,1.99,11.15-2.27,13.89-8.55,2.2-5.05.62-10.14-.03-11.95-2.09-5.88-4.44-5.42-6.73-10.58-3.45-7.77,3.74-13.02,0-19.99-1.23-2.29-2.87-3.53-2.38-5.33.61-2.23,4.05-3.68,6.88-3.4,4.43.44,6.9,5.08,7.82,6.82,2.18,4.1,1.99,8.11,1.75,10.08,1.7,0,4.29-.29,6.48-1.97,3.09-2.37,2.77-5.49,5.63-7.04,2.21-1.2,5.65-1.1,7.48.52,3.97,3.51,2.09,15.62-4.68,21.92-4.06,3.78-7.61,3.36-12.08,8.81-.96,1.16-1.36,1.87-4.23,7.32-7.75,14.7-8.75,16.98-7.76,18.09,1.53,1.71,6.7-.67,7.29-.95,6.39-3.01,6.18-7.71,12.36-13.94,6.88-6.94,10.34-4.33,13.97-10.43,1.88-3.16,1.3-4.45,5.04-13.34,1.27-3.01,2.33-5.23,3.17-6.97,5.96-12.4,8.9-14.82,7.6-17.74-.9-2.03-2.41-1.09-8.99-5.4-4.77-3.12-5.07-4.33-7.61-4.79-3.54-.64-6.75.97-9.57,2.53-5.92,3.27-6.29,5.6-8.29,5.32-3.92-.54-2.81-9.52-8.83-13.73-4.66-3.26-11.09-1.3-15.26-.09-4.09,1.18-12.47,3.59-14.63,9.82-2.55,7.34,6.49,11.45,5.7,23.13-.5,7.44-4.33,8.08-3.49,14.57Z"/><path d="M303.23,328.97c.72.47,2.76,1.58,5.08,3.82,2.3,2.22,3.59,4.33,4.01,5.06,1.99,3.4.74,4.16,2.64,6.68,1.2,1.61,2.04,1.8,2.59,3.4.66,1.92.03,3.34.77,3.77.7.41,2.07-.4,2.87-1.24,1.94-2.04,1.64-5.43.86-9.38-1.14-5.76-2.32-8.75-4.5-14.4-2.77-7.18-4.14-10.86-3.04-15.13.83-3.21,3.36-7.97,7.11-8.17,4.17-.23,7.18,5.33,7.47,5.88,1.52,2.88,1.45,5.65,1.32,7.01,1.44.5,3.47.93,5.26.09,2.72-1.28,2.4-4.3,5.13-5.51,2.76-1.23,5.96.6,6.32.81,3.76,2.22,3.99,6.93,4.03,7.69.31,5.38-3.66,9.37-5.64,11.36-2.57,2.58-3.45,2.28-6.6,4.73-7.29,5.67-6.17,10.06-14.45,18.69-3.03,3.15-5.51,5-5.04,5.82.52.91,4.23-.24,8.36-1.51,2.66-.82,3.96-1.3,5.31-2.18,3.29-2.15,3.49-4.33,6.24-7.35,2.08-2.28,2.82-1.96,8.53-5.63,3.22-2.07,7.11-4.49,10.66-7.92,4.23-4.09,6.86-6.62,8.37-10.92,1.82-5.2,1.66-11.97-1.88-17.68-.47-.76-5.64-8.84-13.59-9.25-.71-.04-4.58-.1-8.25,1.6-5.19,2.4-5.61,4.29-7.3,3.96-3.3-.65-1.91-7.99-6.81-11.77-3.79-2.92-9.35-1.64-12.95-.86-1.82.39-8.61,1.92-12.91,7.35-8.5,10.72-5.94,27.31.01,31.19Z"/></svg>