<?xml version="1.0" encoding="UTF-8"?><svg id="Layer_1" xmlns="http://www.w3.org/2000/svg" viewBox="0 0 1933.81 1082.92"><defs><style>.cls-1{stroke-width:.75px;}.cls-1,.cls-2,.cls-3,.cls-4,.cls-5{fill:#fa6dc0;}.cls-1,.cls-2,.cls-3,.cls-5{stroke:#fa6dc0;stroke-miterlimit:10;}.cls-2{stroke-width:.5px;}.cls-3{stroke-width:2px;}.cls-5{stroke-width:3px;}</style></defs><path class="cls-4" d="M1268.57,130.82l-103.93,117.89-58.79,66.49c1.94-3.54,2.92-6.66,2.91-9.35,0-5.21-3.41-7.81-10.22-7.81-8.02,0-16.48,1.72-25.4,5.13-8.92,3.42-17.58,8.03-25.99,13.84-8.41,5.82-16.03,12.29-22.83,19.4-2.16,2.26-4.16,4.54-6.03,6.85l-2.98,3.23c-7.81,8.62-15.77,16.54-23.88,23.76s-15.47,13.04-22.08,17.45c-6.61,4.41-11.72,6.62-15.33,6.62-3.01,0-4.51-2-4.51-6.01,0-3.2,1.9-7.47,5.7-12.78,3.8-5.31,9.91-12.48,18.32-21.5s19.62-20.55,33.64-34.59c4.6-4.61,8.76-8.27,12.47-10.98,3.7-2.71,6.86-4.76,9.46-6.17h-23.45c-12.85,13.48-23.55,25.31-32.14,35.51h0c-9.42,10.63-18.83,20.25-28.24,28.87-9.42,8.62-17.83,15.39-25.24,20.31-7.41,4.92-13.02,7.37-16.83,7.38-3.2,0-4.81-1.9-4.81-5.71,0-2.41,2.05-6.56,6.15-12.48,4.11-5.91,9.41-12.58,15.92-20,6.5-7.42,13.47-14.78,20.88-22.1,7.41-7.32,14.52-13.88,21.33-19.7,6.81-5.81,12.42-9.82,16.83-12.03h-23.45c-15.42,16.46-27.54,29.99-36.35,40.62-.07.08-.13.16-.2.25l-3.1,3.36c-10.81,12.03-19.78,21.5-26.88,28.42-7.11,6.92-13.07,11.88-17.88,14.89-4.81,3.01-9.11,4.52-12.92,4.52-3.61,0-5.41-2.3-5.41-6.91,0-5.01,2.4-11.27,7.2-18.79,4.8-7.52,13.01-17.79,24.63-30.82,15.62-17.44,30.84-33.88,45.66-49.32,4.79-4.99,9.41-9.74,13.88-14.3,31.24.34,62.48.67,93.72,1.01-.18-3.09-.36-6.18-.54-9.26-26.51-1.83-53.01-3.66-79.52-5.48,4.3-4.26,8.45-8.31,12.41-12.11,11.81-11.33,20.93-19.3,27.34-23.91-4.41,1.2-8.82,2.11-13.22,2.71-4.41.61-8.32.91-11.72.91-11.22,11.83-21.12,22.28-29.73,31.38-23-1.59-46-3.17-69-4.76.74,2.05,1.45,4.58,1.88,7.51.66,4.52.42,8.41,0,11.27,17.78.19,35.55.38,53.33.58-8.16,8.66-15.1,16.05-20.76,22.14-6.81,7.32-12.52,13.53-17.12,18.65-4.61,5.11-8.71,9.83-12.32,14.13-3.6,4.31-7.41,8.87-11.41,13.68-13.82,15.64-20.72,29.57-20.71,41.79,0,7.82,3.52,11.72,10.53,11.72,6.42,0,14.37-3.81,23.89-11.44,6.28-5.03,14.04-12.45,23.26-22.21-1.56,2.4-2.93,4.65-4.03,6.71-3.7,6.91-5.55,12.98-5.55,18.19,0,2.61.66,4.71,1.96,6.31,1.31,1.6,3.16,2.4,5.56,2.4,6.01,0,15.48-5.12,28.4-15.35,8.47-6.7,17.91-15.18,28.31-25.41-.07.1-.15.2-.22.3-9.61,13.33-14.41,23.81-14.41,31.42,0,6.01,2.91,9.02,8.72,9.01,4.01,0,9.51-2.16,16.53-6.47,7.01-4.31,14.77-10.28,23.28-17.9,5.2-4.65,10.42-9.73,15.65-15.2-.37.66-.74,1.31-1.09,1.97-4,7.62-6,14.83-6,21.64,0,10.22,3.32,15.33,9.93,15.32,4.61,0,10.47-2.16,17.58-6.47,7.11-4.31,14.77-9.93,22.98-16.85,7.25-6.11,14.16-12.5,20.79-19.15-1.63,2.26-3.15,4.49-4.56,6.67-7.41,11.43-11.11,20.55-11.1,27.36,0,2.61.85,4.76,2.56,6.46,1.7,1.7,3.66,2.55,5.86,2.55,4.61,0,10.62-2.21,18.03-6.62,7.41-4.41,15.57-10.48,24.48-18.2,8.91-7.72,17.67-16.29,26.29-25.72l2.7-3.01h-3.01s-3.6,3.91-3.6,3.91c-8.61,9.22-17.17,17.44-25.69,24.66-8.52,7.22-16.18,12.89-22.98,17-6.81,4.11-12.02,6.17-15.63,6.17-3.21,0-4.81-2-4.81-6.01,0-2.81,1.15-6.16,3.45-10.07,2.3-3.91,6.2-9.07,11.71-15.49,5.5-6.41,12.86-14.74,22.08-24.96l78.7-89.02,33.34-37.89c20.43-23.05,37.8-41.5,52.12-55.34,14.32-13.84,24.28-22.06,29.89-24.67h-24.65ZM1049.74,371.87c-8.11,6.72-15.43,11.99-21.93,15.79-6.51,3.81-11.67,5.72-15.48,5.72-3.61,0-5.41-1.6-5.41-4.8,0-3.81,1.7-8.57,5.1-14.28,3.41-5.71,7.91-11.88,13.52-18.49,5.6-6.62,11.81-13.13,18.62-19.55,6.81-6.41,13.67-12.28,20.58-17.59,6.91-5.31,13.42-9.58,19.53-12.79,6.11-3.21,11.17-4.82,15.18-4.82,4.41,0,6.61,1.7,6.62,5.11,0,4.41-2.9,10.17-8.71,17.29-5.81,7.12-13.42,15.59-22.83,25.41-8.41,8.62-16.67,16.29-24.78,23.01Z"/><path class="cls-4" d="M1268.57,130.82c-43.95,50.44-124.85,143.14-168.92,193.35,0,0,5.12-9.56,5.12-9.56,2.9-4.98,5.1-13.65-2.56-14.89-6.53-.94-13.38.35-19.75,1.94-22.74,6.48-43.21,20.85-58.95,38.31-15.87,18.18-33.02,35.54-52.97,49.31-4.48,2.92-9.19,5.95-14.67,6.92-5.59,1.04-8.63-2.73-8.41-8.1.49-10.06,13.82-23.35,20.25-30.95,7.88-8.68,20.37-21.21,28.57-29.81,9.51-9.99,19.4-20.52,31.68-27.18,0,0,1.15,4.56,1.15,4.56l-23.45.07,1.79-.77c-11.24,11.85-22.28,23.88-32.73,36.37,0,0-1.21,0-1.21,0,0,0,1.94-.87,1.94-.87-12.17,13.99-56.08,60.15-74.1,57.46-4.73-.77-6.5-6.25-5.54-10.28.77-3.17,2.49-6.03,4.05-8.6,5.06-7.92,10.89-15.06,16.94-22.15,15.19-17.41,31.48-33.8,49.42-48.4,3.7-2.88,7.5-5.67,11.92-7.94l1.37,5.76-23.45.05s2.24-.97,2.24-.97c-11.36,12.15-22.75,24.63-33.5,37.32,0,0-2.97,3.55-2.97,3.55-1.53,1.68-4.69,5.1-6.19,6.81-5.94,6.59-12.65,13.81-18.85,20.13-9.52,9.24-26.02,27.37-40.32,25.15-4.9-.94-6.81-6.44-6.43-10.7.63-18.35,29.7-47.32,41.95-61.47,16.72-18.47,33.81-36.62,51.27-54.4,0,0,1.45.01,1.45.01l93.72.97-3.47,3.64s-.55-9.26-.55-9.26c0,0,3.2,3.23,3.2,3.23,0,0-79.52-5.45-79.52-5.45l-7.75-.53c7.75-7.46,17.05-16.86,24.93-24.14,6.7-6.18,13.34-12.25,20.77-17.67,0,0,2.96,6.21,2.96,6.21-8.47,2.28-17.02,3.63-25.86,3.73,0,0,2.53-1.09,2.53-1.09,0,0-29.74,31.36-29.74,31.36,0,0-1.13,1.19-1.13,1.19l-1.63-.11-69-4.79,3.47-4.58c2.34,6.51,3.04,13.6,2.04,20.44,0,0-3.35-3.91-3.35-3.91,5.08.08,57.95.64,61.06.69,0,0-5.29,5.64-5.29,5.64-16.21,17.38-34.92,36.92-50.21,54.9-9.62,12.02-21.14,23.19-27.52,37.34-2.51,5.74-4.19,11.82-3.65,18.01.47,6.36,5.86,7.04,11.12,5.73,8.03-2.18,15.23-7.86,21.63-13.3,11.79-10.26,28.26-28.4,39.31-39.9-2.4,4-16.48,27.32-18.59,30.84-2.84,4.52-9.71,20.63-2.55,22.89,13.73,1.35,45.34-29.61,55.84-39.66,0,0,4.58,3.94,4.58,3.94-6,8.63-14.6,20.7-14.02,31.37.25,4.12,3.58,5.05,7.42,4.46,6.74-1.39,12.84-5.5,18.64-9.37,17.67-12.13,33.94-29.94,48.8-45.42,0,0-11.27,19.71-11.27,19.71-3.58,6.3-6.24,13.05-6.71,20.23-.18,4.12-.05,9.43,2.4,12.64,6.42,6.89,24.06-6,30.17-10.16,12.2-8.75,23.45-18.82,34.1-29.4,0,0,3.84,3.25,3.84,3.25-4.95,7.1-9.91,14.41-13.04,22.5-1.85,5.23-4.74,13.59,1.91,16.35,12.45,2.49,37.34-18.94,46.78-27.22,8.79-7.85,17.11-16.23,25-25.03,0,0,1.57,3.52,1.57,3.52h-3.01s1.54-.69,1.54-.69c-11.12,12.73-54.93,55.54-71.69,51.82-4.02-1.2-4.72-5.86-4.23-9.33.81-5.01,3.45-9.16,6.22-13.16,4.7-6.74,12.44-15.13,17.94-21.31,11.88-13.29,43.09-48.31,55.32-62,34.46-38.08,75.72-86.68,111.53-123.17,11.48-11.36,22.94-22.89,35.95-32.5,1.89-1.33,3.83-2.61,5.94-3.6,0,0,.06.28.06.28,0,0-24.65-.13-24.65-.13h0ZM1268.57,130.82s24.65-.16,24.65-.16h.65s-.59.28-.59.28c-8.13,4.36-14.81,10.96-21.62,17.09-31.3,29.35-65.05,69.34-93.56,101.91-26.44,30.08-64.93,74.18-91.24,104.13-5.34,6.14-13.02,14.59-17.52,21.19-2.4,3.54-4.91,7.46-5.53,11.65-.51,5.19,1.27,6.31,5.89,5.08,21.14-7.2,48.79-34.81,64-51.57,0,0,.94,0,.94,0h3.01s4.71-.03,4.71-.03c-16.88,19.12-35.04,37.37-56.85,50.99-7.47,4.25-20.21,11.58-27.43,3.31-6.45-7.41-.2-20.4,3.59-27.81,2.83-5.38,6.25-10.33,9.68-15.32,0,0,3.84,3.25,3.84,3.25-10.8,10.83-22.21,21.12-34.62,30.12-8.88,6.09-27.75,20.09-37.42,9.35-3.77-5-3.85-10.7-3.71-16.44.46-8.01,3.44-15.8,7.31-22.64,0,0,4.47,3.31,4.47,3.31-10.39,10.86-21.46,21.19-33.77,29.91-6.43,4.33-13.07,8.86-21,10.44-6.99,1.26-13.66-1.98-14.31-9.63-.73-8.27,3.05-15.99,6.76-22.83,2.51-4.46,5.32-8.67,8.27-12.76l4.58,3.94c-13.45,13.04-26.94,25.89-43,35.93-5.54,3.14-11.65,6.7-18.44,5.53-4.99-.87-8.06-6.32-8.03-10.75-.22-10.36,4.9-19.09,10.04-27.46,0,0,4.99,3.93,4.99,3.93-6.25,6.62-12.64,13.13-19.59,19.21-7.26,6.16-14.73,12.12-24.27,14.76-9.05,2.43-18.21-.79-19.25-11.28-.76-7.37,1.23-14.88,4.12-21.48,6.6-14.9,18.38-26.46,28.43-38.96,15.34-18.08,34.14-37.8,50.43-55.24,0,0,2.44,5.73,2.44,5.73,0,0-53.33-.55-53.33-.55,0,0-3.91-.04-3.91-.04,0,0,.56-3.87.56-3.87.84-5.75.25-11.68-1.72-17.14,0,0-1.78-4.94-1.78-4.94,0,0,5.25.36,5.25.36l69,4.73-2.75,1.08s29.72-31.39,29.72-31.39l1.02-1.08s1.5,0,1.5,0c13.32.21,29.71-5.12,42.57-8.57,0,0-15.57,11.27-15.57,11.27-7.02,5.15-13.65,11.16-20.1,17.11-5.71,5.09-13.61,13.19-19.25,18.55,0,0-2.21-5.94-2.21-5.94l79.52,5.52s3.02.21,3.02.21l.18,3.02c.21,2.75.56,10.37.75,12.94,0,0-3.68-.04-3.68-.04l-93.72-1.05s2.46-1.02,2.46-1.02c-17.06,17.38-33.76,35.09-50.12,53.13-11.2,12.94-39.45,41.25-40.37,57.21-.03,1.55,0,2.92.76,3.81.12.1.26.19.57.27,2.3.28,4.73-.41,6.94-1.29,10.4-4.67,19.1-13.93,27.35-21.98,8.35-8.42,16.81-17.84,24.86-26.59,3.23-3.9,8.55-10.03,11.94-13.88,8.41-9.5,17.02-18.8,25.69-28.02,0,0,1.33,0,1.33,0,0,0,23.45.02,23.45.02h12.67s-11.31,5.76-11.31,5.76c-7.71,4.04-14.63,10.19-21.27,15.99-16.88,15.14-32.92,31.43-47.06,49.18-3.96,5.21-8.26,10.56-10.81,16.47-.25.63-.4,1.17-.49,1.76-.03.8.11,2.13.4,2.48.52.91,1.99.62,3.17.46,6.18-1.44,11.72-5.37,17.06-9,3.67-2.59,7.24-5.36,10.73-8.24,14.26-11.81,27.43-25.03,39.76-38.93,0,0,1.16,0,1.16,0,0,0-1.98.92-1.98.92,10.61-12.51,21.75-24.49,33.07-36.3,7.22.02,27.07.04,34.05.06-5.24,2.83-12.07,6.34-16.8,9.94-7.99,5.61-15.4,13.77-22.29,20.75-13.65,14.22-29.93,29.45-41.82,45.06-2.74,3.84-5.79,7.93-6.18,12.55,0,3.07.59,4.57,3.7,4.01,4.72-.85,8.98-3.57,13.07-6.2,5.63-3.75,11.01-7.94,16.23-12.32,11.79-9.85,22.62-20.77,32.93-32.18,7.81-9.27,16.95-17.51,26.87-24.48,11.36-8,23.87-14.53,37.38-18.11,6.85-1.62,13.96-2.91,21.02-1.79,6.94,1.27,8.57,7.74,6.38,13.77-.58,1.73-1.35,3.35-2.2,4.9,0,0-2.01-1.41-2.01-1.41,0,0,163.65-183.57,163.65-183.57h0Z"/><path class="cls-4" d="M1049.74,371.87c-9.08,7.4-18.3,14.79-28.94,19.9-13.23,5.97-18.17.36-12.79-12.85,12.75-27.9,46.85-61.2,73.94-75.48,5.67-2.81,11.53-5.43,18.21-5.12,10.42.64,9.6,10.02,5.29,17.03-4.65,7.75-11.24,13.91-17.3,20.42-12.22,12.64-24.88,24.91-38.42,36.12h0ZM1049.74,371.87c17.93-14.94,33.71-32.65,47.62-51.27,2.91-4.22,6.33-9.52,6.23-14.53-.1-2.03-1.62-2.18-3.64-2.25-8.05.48-15.3,5.49-22.2,9.77-14.31,9.65-27.46,21.12-39.9,33.11-10.13,10.13-20.39,20.71-27.31,33.35-1.25,2.52-2.31,5.18-2.56,7.89-.12,1.34,0,2.61.75,3.42.72.83,2.06,1.2,3.42,1.25,2.75.11,5.6-.69,8.28-1.74,10.81-4.47,20.26-11.7,29.31-19.02h0Z"/><path class="cls-4" d="M601.57,808.36c-14.6,11.05-50.89,38.66-72.2,35.9-20.51-2.76-23.28-20.12-20.51-32.75,3.95-17.75,25.64-45.76,37.09-60.36,16.57-21.31,48.92-56.02,54.45-60.36,2.37-1.69,12.28-3.09,13.07-.72.19.58-.28,1.28-.44,1.51-15.19,21.23-27.64,44.44-44.07,64.72,0,0-25.62,31.63-30.49,62.32-1.15,7.27.96,9.66,1.87,10.44,2.48,2.13,6.84,1.6,11.94-.18,14.6-4.73,35.9-20.91,48.13-30.77,12.62-10.26,41.03-35.11,48.13-44.58,3.16-3.94,13.41-1.18,6.31,7.1-9.07,11.05-37.87,35.9-53.26,47.74ZM642.99,643.84c-6.71,12.23-17.36,22.09-23.28,22.09s-5.13-9.86,1.97-22.09c6.71-12.23,17.36-22.09,23.28-22.09s5.13,9.86-1.97,22.09Z"/><path class="cls-4" d="M601.93,808.84c-12.4,9.38-24.77,18.82-38.18,27.01-6.74,4.03-13.72,7.86-21.57,10.28-1.96.63-4,1.08-6.09,1.45-2.12.28-4.27.53-6.55.36-1.14-.03-2.15-.25-3.24-.38-.54-.08-1.07-.14-1.61-.25l-1.6-.41c-1.07-.28-2.15-.53-3.19-.99-1.04-.44-2.13-.77-3.12-1.39-1-.59-2.06-1.07-2.98-1.83-.93-.72-1.92-1.38-2.73-2.26l-1.25-1.27c-.42-.42-.74-.92-1.12-1.39l-1.07-1.43-.9-1.53c-2.36-4.11-3.49-8.7-3.83-13.14-.12-2.23-.12-4.46.11-6.65.1-1.1.22-2.19.43-3.28.15-1.1.44-2.16.73-3.23.51-2.19,1.29-4.13,1.99-6.15.81-1.91,1.6-3.86,2.53-5.67,3.57-7.37,7.88-14.09,12.41-20.57,4.55-6.47,9.44-12.64,14.4-18.69,2.49-3.02,5.03-5.99,7.56-8.94,2.56-2.99,5.16-5.92,7.79-8.82,5.28-5.77,10.6-11.48,15.99-17.11l16.14-16.89,8.13-8.4,4.14-4.16c.68-.7,1.42-1.37,2.13-2.06.34-.34.74-.69,1.15-1.04l.61-.52.15-.13.25-.17c.18-.12.31-.19.46-.27,1.13-.57,2.13-.85,3.15-1.13,1.02-.26,2.03-.45,3.06-.6,1.03-.14,2.06-.24,3.13-.26,1.08,0,2.16.01,3.49.38.34.11.7.23,1.11.49.39.23.89.64,1.22,1.3.17.31.28.72.3,1.08.02.36-.01.66-.07.93-.12.53-.31.91-.5,1.25-.09.16-.22.34-.29.44l-.2.3-.41.6-.81,1.2c-1.09,1.59-2.15,3.21-3.2,4.83-2.13,3.22-4.16,6.52-6.17,9.83-2,3.32-4.02,6.63-5.98,9.98-7.89,13.38-15.8,26.93-25.35,39.64l-.32.35s.04,0,.05-.01h.02s-.07.09-.07.09l-.33.46-.67.93-1.33,1.9c-.88,1.27-1.74,2.56-2.59,3.86-1.7,2.6-3.32,5.24-4.94,7.89-3.21,5.31-6.11,10.78-8.72,16.33l-.99,2.08-.9,2.11c-.59,1.41-1.25,2.8-1.75,4.23l-1.6,4.26-1.37,4.3c-.48,1.43-.76,2.89-1.16,4.32-.18.72-.39,1.44-.54,2.16l-.39,2.17c-.24,1.42-.59,2.98-.68,4.16-.12,1.23-.09,2.37.05,3.16.07.37.17.65.23.74.06.11,0-.07-.2-.25-.14-.13-.29-.19-.21-.17.07,0,.34.04.71.03,1.6-.02,4.38-.85,7.04-1.92,2.63-1.02,5.24-2.29,7.88-3.72,2.63-1.39,5.24-2.98,7.84-4.59,5.18-3.28,10.3-6.8,15.33-10.49,5.04-3.66,10.04-7.49,14.91-11.38,4.89-3.89,9.75-7.95,14.58-12.01,4.83-4.06,9.66-8.13,14.44-12.24,4.78-4.1,9.53-8.24,14.01-12.46.57-.53,1.11-1.06,1.63-1.59.52-.53,1.09-1.06,1.57-1.6l.74-.81.37-.41.32-.36.45-.47c1.18-1.09,2.53-1.74,3.83-2.09,2.61-.62,5.17-.41,7.69,1.1,1.23.78,2.46,2.06,3.02,3.69.58,1.61.47,3.25.11,4.48-.35,1.26-.91,2.23-1.48,3.1-.58.88-1.22,1.59-1.82,2.25-1.15,1.19-2.3,2.38-3.49,3.49-2.35,2.27-4.77,4.39-7.19,6.5-4.89,4.16-9.76,8.29-14.74,12.28-9.92,8.02-19.8,16.04-29.89,23.83ZM601.2,807.89c10-7.81,19.56-16.23,28.71-25.04,4.54-4.44,9.07-8.89,13.34-13.55,2.13-2.33,4.25-4.67,6.22-7.06,1.01-1.18,1.93-2.41,2.86-3.63.41-.57.77-1.1,1-1.59.24-.49.41-.96.42-1.25.03-.31-.09-.33-.09-.21.01.12.04.22-.08.18-.14-.02-.4-.07-.71-.05-.3.02-.62.1-.84.2-.22.11-.3.25-.26.26.02,0,.04-.01.05-.03l.02-.02-.08.11-.38.52-.76,1.04c-.5.71-1.04,1.33-1.56,2-.52.66-1.06,1.31-1.59,1.92-4.27,5.02-8.75,9.63-13.3,14.18-9.13,9.07-18.62,17.59-28.45,25.95-4.97,4.18-10.03,8.13-15.21,12.05-5.22,3.85-10.54,7.6-16.14,11.07-2.82,1.72-5.67,3.41-8.67,4.96-2.96,1.58-6.12,3.02-9.45,4.22-1.69.6-3.24,1.14-5.14,1.62-1.88.45-3.85.86-6.28.86-1.21-.01-2.55-.13-4.01-.53-1.45-.4-3.06-1.16-4.42-2.33-1.43-1.21-2.41-2.73-2.99-4.07-.6-1.37-.9-2.64-1.1-3.83-.33-2.36-.24-4.43-.02-6.35.22-1.99.65-3.52.99-5.23l.54-2.51c.2-.83.46-1.63.69-2.45.49-1.61.89-3.27,1.47-4.84l1.68-4.73,1.9-4.61c.61-1.55,1.36-3.02,2.04-4.52l1.05-2.24,1.13-2.2c2.98-5.87,6.33-11.49,9.92-16.94l2.74-4.05c.96-1.32,1.89-2.65,2.87-3.96.98-1.31,1.95-2.61,2.97-3.89l1.53-1.93.78-.96.4-.48.32-.38.43-.48-.32.35c9.98-11.48,18.87-24.14,27.69-36.93l6.61-9.62,6.71-9.59c1.13-1.59,2.26-3.19,3.42-4.76l1.63-2.23c.05-.08.08-.14.06-.09,0,.03-.02.1,0,.21,0,.12.05.29.1.39.32.44.27.22.01.17-.53-.19-1.42-.27-2.28-.27-.87,0-1.77.07-2.67.17-.9.11-1.8.26-2.66.47-.85.2-1.74.47-2.34.78-.06.04-.15.08-.17.09-.02.01-.03.01-.06.03l-.12.11-.49.43c-.33.28-.66.56-1.01.91-.69.66-1.39,1.29-2.07,1.98-1.38,1.34-2.73,2.72-4.07,4.11-2.69,2.78-5.34,5.6-7.94,8.48-5.22,5.73-10.29,11.59-15.24,17.56-4.93,5.98-9.78,12.02-14.43,18.19-2.33,3.08-4.62,6.18-6.85,9.3l-6.71,9.47c-4.45,6.3-8.74,12.68-12.87,19.09-4.14,6.4-8.02,12.92-11.27,19.52-3.32,6.67-5.43,13.03-5.27,19.75.03,3.3.72,6.46,2,9.22,1.3,2.75,3.26,5.07,5.9,6.82,2.61,1.75,5.94,2.83,9.3,3.5,1.58.32,3.33.32,5.07.3,1.76-.12,3.56-.29,5.36-.65,3.61-.66,7.23-1.74,10.8-3.02,3.58-1.28,7.1-2.81,10.57-4.47,13.89-6.7,26.76-15.55,39.09-24.95Z"/><path class="cls-4" d="M643.51,644.14c-1.23,2.12-2.24,4.37-3.15,6.78-.93,2.39-1.73,4.97-2.89,7.41-2.3,4.89-5.93,9.16-12.05,11.24-.41.12-.81.23-1.22.33-.39.11-.84.18-1.31.24-.48.05-.89.11-1.4.12-.53,0-1.05-.02-1.55-.07-1.06-.12-2.28-.44-3.42-1.12-1.14-.67-2.06-1.72-2.56-2.75-.99-2.12-.8-3.83-.63-5.3.21-1.48.58-2.79.93-4.06.73-2.53,1.5-4.93,2.28-7.36.79-2.4,1.52-4.93,2.3-7.34.4-1.23.74-2.48,1.23-3.71.24-.61.46-1.24.72-1.85.28-.6.54-1.21.83-1.8,1.17-2.37,2.61-4.59,4.22-6.73,1.6-2.14,3.32-4.24,5.35-6.18.53-.48,1.05-.96,1.59-1.43.56-.46,1.16-.9,1.75-1.34.61-.44,1.29-.83,1.94-1.24.72-.38,1.44-.77,2.23-1.1l1.27-.48c.22-.08.41-.15.65-.22l.75-.18c.52-.11.96-.24,1.55-.3.6-.06,1.21-.09,1.81-.1,1.26,0,2.82.26,4.38,1.01,1.56.74,2.94,2.07,3.71,3.39.8,1.33,1.12,2.61,1.26,3.71.1,1.09.07,2.06-.07,2.95-.29,1.75-.86,3.2-1.53,4.52-1.36,2.63-3.11,4.73-4.68,6.8-1.59,2.05-3.01,4.08-4.27,6.18ZM642.47,643.55c1.19-2.12,2.01-4.43,2.34-6.86.34-2.41.22-4.94-.18-7.09-.2-1.07-.47-2.05-.79-2.74-.17-.33-.33-.58-.49-.68-.14-.08-.26.03-.15.36.09.32.51.81.96,1.06.44.26.76.32.81.37,0,.05,0,.07-.01.08-.02.01-.16.1-.23.13-.04.02-.09.04-.13.05-.05.02-.13.08-.2.11-.14.07-.28.14-.42.21-1.27.67-2.96,1.79-4.62,2.99-1.67,1.24-3.38,2.62-5.01,4.13-1.65,1.5-3.16,3.17-4.82,4.77-1.64,1.62-3.32,3.25-4.97,5.04-1.66,1.81-3.17,3.62-4.3,5.7-1.11,2.06-1.98,4.28-2.21,6.53-.12,1.11-.06,2.24.19,3.2.24.94.8,1.75,1.19,1.68.18-.02.21-.24.19-.42-.02-.18,0-.31.15-.48.1-.11.18-.19.27-.25l.37-.31c.23-.13.59-.5.9-.68,1.33-1.04,2.95-2.31,4.67-3.54,1.73-1.26,3.68-2.43,5.77-3.64l1.58-.92,1.56-.99c1.04-.67,2.06-1.39,3-2.18,1.91-1.58,3.43-3.5,4.59-5.63Z"/><path class="cls-4" d="M753.06,805.6c-29.98,24.07-58,39.06-81.67,39.85-18.15.79-29.59-4.34-31.96-14.6-3.95-17.75,11.44-35.11,26.83-47.34,21.3-16.96,33.54-21.31,49.32-33.14,10.65-7.5,20.12-16.57,18.94-24.46-1.97-9.07-12.23-11.44-21.7-16.57-5.13-2.37-8.68-6.31-8.68-6.31-6.48,7.74-17.58,21.08-31.17,37.88-46.3,57.23-56.64,74.4-82.03,88.41-10.73,5.92-28.36,13.59-54,16-3.58-5.64-5.23-10.84-6-15-5.59-30.12,25.64-55.16,28-57-.56.83-12.52,19.18-5,30,3.97,5.71,11.56,6.71,14,7,12.08,1.42,23.34-5.04,79-60,8.31-8.21,14.85-14.76,23-24,10.11-11.45,18.82-22.63,26.31-33.14-1.18-2.37-3.55-5.92-1.58-12.62,2.37-9.07,8.29-13.02,13.41-13.02,8.68,0,10.26,6.31,9.47,13.02-1.18,6.71-7.1,12.62-7.1,12.62,0,0,2.37,3.95,8.68,7.5,8.68,4.74,27.22,8.68,25.64,26.83-2.37,22.88-41.82,54.05-65.49,82.85-7.5,8.68-9.07,17.36-7.89,21.31.39,1.18,2.37,2.37,3.55,2.37,11.05,1.97,41.82-12.23,71.02-34.72,20.12-15.78,37.09-31.17,48.92-44.19,5.92-6.71,14.2-1.18,9.07,4.74-9.07,10.26-27.62,26.83-50.89,45.76Z"/><path class="cls-4" d="M753.25,805.83c-5.2,4.13-10.47,8.18-15.89,12.01-5.43,3.82-10.98,7.48-16.7,10.86-5.74,3.35-11.63,6.44-17.73,9.09-6.1,2.65-12.4,4.85-18.91,6.28-6.5,1.44-13.2,1.96-19.85,1.68-3.33-.14-6.66-.57-9.91-1.41-3.23-.85-6.43-2.1-9.14-4.17l-1-.79c-.33-.26-.61-.59-.92-.88-.63-.57-1.14-1.27-1.67-1.94-.97-1.4-1.79-2.93-2.25-4.58-.86-3.28-1.21-6.69-.77-10.05.39-3.34,1.24-6.65,2.62-9.72l.48-1.17.57-1.12c.39-.74.75-1.5,1.16-2.24.88-1.43,1.69-2.9,2.68-4.25,3.78-5.54,8.38-10.44,13.28-14.96,1.21-1.14,2.5-2.21,3.75-3.31,1.29-1.05,2.56-2.14,3.87-3.16,2.6-2.07,5.24-4.1,7.93-6.06,5.37-3.94,10.93-7.61,16.59-11.1,5.65-3.51,11.35-6.88,16.79-10.6,1.37-.91,2.7-1.88,4.05-2.84l4-2.94c2.66-1.95,5.23-3.98,7.64-6.18,2.41-2.19,4.65-4.56,6.47-7.18.92-1.3,1.68-2.68,2.22-4.1.58-1.41.83-2.93.71-4.31-.12-1.38-.69-2.84-1.49-4.08-.8-1.25-1.81-2.39-3.05-3.34-2.43-1.94-5.37-3.37-8.35-4.77l-4.52-2.1c-.75-.37-1.52-.73-2.26-1.11-.74-.38-1.46-.77-2.23-1.13-1.56-.77-3.03-1.72-4.42-2.75-1.39-1.06-2.67-2.14-3.93-3.47l2.15-.04-17.95,21.98c-5.97,7.34-12.03,14.6-17.91,22.01-11.85,14.75-23.44,29.69-35.4,44.42-6.01,7.34-12.15,14.63-19.01,21.34-1.68,1.71-3.5,3.28-5.29,4.89-.89.81-1.86,1.53-2.78,2.3-.94.76-1.86,1.53-2.85,2.22l-2.92,2.13c-.99.68-2.01,1.32-3.02,1.99l-1.51.99-1.56.91-3.11,1.82c-16.82,9.38-35.74,14.58-54.78,16.41l-1.25.12-.69-1.07c-3.87-6.05-6.44-13.09-6.91-20.36-.56-7.26.87-14.55,3.53-21.18,2.66-6.66,6.47-12.74,10.85-18.28,2.19-2.78,4.54-5.41,7.01-7.93,2.49-2.52,5.04-4.9,7.86-7.16l10.63-8.49-7.32,11.56c-2.34,3.7-4.37,7.9-5.68,12.09-1.3,4.19-1.9,8.66-.68,12.41.61,1.85,1.65,3.49,3.13,4.76,1.45,1.3,3.28,2.26,5.27,2.92,1.98.66,4.14,1.07,6.29,1.19,1.06.13,2.08.02,3.11,0,1.01-.2,2.03-.25,3.03-.61,4.03-1.13,7.94-3.51,11.68-6.07l2.79-1.98,2.73-2.12c1.84-1.38,3.59-2.92,5.38-4.38,7.09-5.99,13.94-12.35,20.74-18.76,6.77-6.45,13.48-12.97,20.14-19.55,6.66-6.59,13.35-13.14,19.73-19.9,12.77-13.52,24.53-28.02,35.31-43.18l-.24,3.08c-.56-1.09-1.4-2.61-1.9-4.23-.53-1.62-.78-3.38-.76-5.06.01-1.68.29-3.35.68-4.84.19-.76.41-1.47.62-2.2.24-.73.51-1.48.81-2.2.61-1.46,1.38-2.88,2.29-4.23.94-1.33,2.05-2.59,3.35-3.68,2.56-2.18,6.01-3.68,9.64-3.61,1.64.03,3.37.23,5.13.84,1.75.6,3.51,1.79,4.73,3.36,1.24,1.56,1.93,3.36,2.29,5.05.36,1.7.43,3.34.37,4.92-.02.77-.1,1.6-.19,2.43l-.28,1.3c-.1.43-.23.8-.34,1.2-.49,1.56-1.14,3.01-1.87,4.38-.74,1.36-1.57,2.65-2.47,3.88-.92,1.24-1.82,2.34-2.99,3.56l.47-3.81.24.34c.11.15.23.3.36.46.25.31.53.62.81.92.57.61,1.2,1.19,1.86,1.75,1.32,1.1,2.8,2.11,4.3,2.95,1.5.81,3.26,1.58,5.03,2.36,1.77.78,3.6,1.58,5.42,2.48,3.63,1.78,7.32,3.93,10.46,7.08,1.57,1.56,2.95,3.4,3.99,5.44,1.05,2.03,1.74,4.25,2.06,6.48.32,2.23.33,4.43.05,6.63l-.25,1.64c-.1.54-.25,1.05-.37,1.58-.23,1.06-.59,2.05-.91,3.06-1.39,4-3.38,7.59-5.52,11.01-4.33,6.82-9.41,12.89-14.65,18.74-10.52,11.66-21.7,22.49-32.34,33.71-2.66,2.81-5.28,5.64-7.84,8.51-1.27,1.44-2.54,2.89-3.79,4.37-1.28,1.49-2.43,2.85-3.47,4.36-2.08,2.97-3.72,6.26-4.58,9.66-.41,1.68-.66,3.43-.49,4.92.03.17.03.39.07.52l.05.23.02.11v.06s0-.04,0-.04c-.11-.2.02.04.2.18.18.17.45.34.69.46.23.13.52.17.42.17l.41.04c1.87.33,4.16.13,6.4-.28,2.25-.41,4.52-1.02,6.77-1.73,4.5-1.42,8.93-3.25,13.28-5.24,8.7-4.01,17.12-8.74,25.26-13.88,8.14-5.16,16.01-10.72,23.56-16.77,7.61-5.97,15.05-12.16,22.3-18.56,7.23-6.42,14.28-13.06,20.87-20.12.8-.86,1.76-1.85,2.86-2.54,1.13-.65,2.38-1.22,3.75-1.27,1.34-.08,2.75.23,3.89,1.06,1.14.8,1.92,2.19,1.92,3.61.02,1.41-.56,2.74-1.39,3.74-.38.56-.81.96-1.22,1.42-.42.45-.82.9-1.24,1.34-1.68,1.76-3.39,3.49-5.13,5.18-14,13.48-28.9,25.92-43.96,38.14ZM752.87,805.37c7.49-6.15,14.92-12.38,22.21-18.76,7.3-6.37,14.5-12.86,21.33-19.71,1.71-1.71,3.38-3.45,5.02-5.22,1.56-1.8,3.54-3.51,3.42-5.63-.02-1.01-.55-1.94-1.4-2.52-.84-.59-1.92-.82-2.99-.75-1.08.04-2.1.53-3.05,1.09-.94.63-1.68,1.4-2.51,2.32-6.52,7.23-13.44,14.07-20.58,20.67-7.15,6.59-14.5,12.96-22.01,19.12-7.46,6.23-15.34,12.05-23.45,17.45-8.13,5.39-16.56,10.37-25.38,14.67-4.42,2.14-8.93,4.12-13.64,5.72-2.36.8-4.76,1.51-7.27,2.02-2.51.5-5.11.87-8.05.45l.41.04c-1.07-.03-1.73-.29-2.38-.57-.63-.29-1.2-.64-1.76-1.1-.55-.49-1.11-.97-1.58-2.09l-.08-.21-.03-.12-.06-.24-.12-.48c-.09-.33-.1-.61-.15-.91-.3-2.38,0-4.54.46-6.64.98-4.17,2.84-7.96,5.15-11.39,1.14-1.71,2.48-3.34,3.71-4.82,1.23-1.51,2.5-3,3.78-4.5,2.57-2.97,5.18-5.88,7.83-8.76,10.58-11.5,21.7-22.39,31.88-33.93,5.06-5.78,9.97-11.69,13.96-18.03,3.92-6.3,7.12-13.22,6.08-19.81-.48-3.24-1.97-6.13-4.36-8.49-2.37-2.38-5.47-4.24-8.81-5.86-1.67-.82-3.41-1.58-5.19-2.36-1.79-.79-3.6-1.56-5.53-2.59-1.89-1.05-3.63-2.24-5.31-3.62-.83-.7-1.63-1.43-2.39-2.24-.38-.4-.75-.82-1.12-1.26-.18-.22-.36-.45-.54-.69l-.27-.37c-.1-.14-.16-.23-.32-.48l-1.25-2.03,1.72-1.78c.35-.36.81-.88,1.2-1.35.4-.49.79-.99,1.17-1.5.75-1.02,1.43-2.08,2.03-3.16.58-1.08,1.07-2.18,1.42-3.28.08-.27.19-.56.24-.81l.17-.74c.06-.56.12-1.12.14-1.73.11-2.4-.29-4.67-1.3-5.9-.5-.62-1.12-1.09-2-1.4-.88-.3-1.94-.47-3.08-.49-1.97-.05-3.99.75-5.66,2.16-.84.7-1.59,1.54-2.26,2.48-.64.96-1.22,1.99-1.69,3.1-.23.56-.44,1.12-.64,1.72-.17.61-.38,1.22-.52,1.82-.32,1.2-.5,2.3-.51,3.41-.01,1.1.13,2.14.46,3.16.33,1.05.82,1.99,1.54,3.38l.82,1.6-1.06,1.49c-10.99,15.36-23.04,29.95-36.1,43.61-6.54,6.83-13.29,13.35-20.01,19.9-6.71,6.56-13.5,13.05-20.35,19.49-6.89,6.4-13.82,12.76-21.1,18.82-1.85,1.49-3.63,3.03-5.55,4.45l-2.84,2.17-2.95,2.07c-3.99,2.67-8.2,5.28-13.23,6.68-1.22.41-2.57.52-3.86.73-1.31.04-2.64.13-3.91-.02-2.53-.17-5.01-.65-7.47-1.49-2.44-.83-4.86-2.08-6.9-3.92-2.07-1.8-3.63-4.27-4.45-6.87-.84-2.62-.98-5.31-.78-7.86.22-2.56.78-5.02,1.52-7.38.74-2.36,1.68-4.63,2.73-6.83,1.07-2.21,2.2-4.29,3.59-6.42l3.31,3.08c-2.58,2.03-5.09,4.35-7.46,6.73-2.37,2.4-4.63,4.9-6.73,7.53-4.19,5.25-7.8,10.98-10.3,17.13-2.5,6.13-3.81,12.73-3.34,19.25.38,6.53,2.65,12.87,6.17,18.45l-1.94-.95c18.59-1.69,36.97-6.65,53.32-15.65l3.02-1.75,1.51-.88,1.46-.94c.97-.63,1.96-1.25,2.92-1.9l2.82-2.03c.96-.66,1.85-1.4,2.75-2.13.9-.74,1.83-1.43,2.7-2.21,1.74-1.55,3.51-3.06,5.15-4.72,6.71-6.49,12.83-13.67,18.85-20.94,11.98-14.6,23.67-29.51,35.61-44.2,5.92-7.39,12.03-14.62,18.05-21.94l18.13-21.87,1.02-1.23,1.13,1.19c2.11,2.22,4.72,4.24,7.49,5.67.73.35,1.47.75,2.2,1.14.74.39,1.46.74,2.2,1.1l4.48,2.13c3,1.44,6.08,2.95,8.83,5.18,1.38,1.09,2.61,2.46,3.58,4.01.96,1.55,1.65,3.28,1.82,5.19.14,1.92-.23,3.75-.91,5.41-.65,1.67-1.53,3.2-2.53,4.6-2,2.82-4.38,5.27-6.89,7.52-2.51,2.25-5.17,4.32-7.88,6.26l-4.05,2.91c-1.37.95-2.74,1.92-4.13,2.82-5.56,3.7-11.33,7.01-16.99,10.44-5.67,3.41-11.23,6.99-16.61,10.83-2.7,1.91-5.34,3.9-7.95,5.93-1.32,1-2.58,2.06-3.87,3.08-1.25,1.07-2.53,2.12-3.74,3.23-4.9,4.41-9.5,9.19-13.24,14.6-.98,1.32-1.78,2.75-2.66,4.14-.4.71-.76,1.45-1.15,2.17l-.57,1.09-.48,1.13c-1.37,2.98-2.22,6.17-2.62,9.39-.46,3.23-.14,6.55.65,9.66.42,1.56,1.18,3,2.08,4.32.5.63.96,1.3,1.56,1.84.29.28.55.59.87.84l.95.76c2.56,2,5.66,3.25,8.82,4.1,3.17.85,6.45,1.3,9.75,1.47,6.59.35,13.24-.15,19.69-1.59,6.46-1.42,12.73-3.61,18.8-6.25,6.07-2.64,11.94-5.72,17.66-9.06,5.7-3.37,11.23-7.03,16.66-10.83,5.41-3.82,10.67-7.87,15.86-11.98Z"/><path class="cls-2" d="M656.81,315.5c-12.86-6.74-28.78-10.41-46.53-10.41-12.19,0-25.38,1.51-39.27,4.38-47.35,15.6-79.09,35.26-89.6,55.33,47.21-31.63,90.47-47.47,124.58-47.47,15.92,0,30,3.67,41.63,10.41,16.53,9.8,23.27,26.33,23.27,45.31,0,13.34-3.3,28.25-8.92,43.74,6.29-1.66,12.57-3.53,18.81-5.63,4.57-14.38,7.25-28.33,7.25-41.17,0-23.27-9.18-42.86-31.22-54.49Z"/><path class="cls-4" d="M575.99,544.49c-58.78,55.1-124.9,85.11-163.47,85.11-11.02,0-19.59-2.45-25.71-7.35-4.9-4.29-6.73-9.8-6.73-17.14,0-24.49,23.27-61.84,33.06-74.08,4.29-4.9,5.51-9.8,4.29-12.25-2.45-3.06-7.96-1.84-17.14,7.35-22.04,23.88-54.49,75.31-54.49,109.59,0,11.02,3.67,20.2,11.63,26.33,6.12,4.9,16.53,7.35,29.39,7.35,46.53,0,129.19-33.06,204.49-113.88,16.89-18.23,37.53-44.56,55.41-73.43-7.06,1.34-14.12,2.46-21.19,3.36-15.68,22.95-33.36,43.83-49.52,59.05Z"/><path class="cls-4" d="M948.34,56.76s.09-.03.13-.05c7.77-2.96,15.75-8.68,20.71-15.5,3.02-4.04,4.96-8.46,4.96-12.88,0-1.63,0-2.72-.54-4.34-.52-1.93-1.44-3.78-2.69-5.54-6-8.74-19.11-13.17-28.8-15.57-1.33-.28-2.68-.54-4.04-.78-5.69-1.07-11.84-1.73-18.28-1.94-35.53-1.58-77.13,8.15-105.41,24.36-38.23,21.03-66.6,65.81-56.79,110.19,6.27,29.08,23.93,53.79,40.72,77.66,13.59,20.15,34.18,44.16,34.84,69.13-1.99,63.02-59.68,106.26-112.96,129.23-39.86,17.2-83.14,26.63-126.64,25.28-28.53-.73-57.68-5.1-83.83-16.55-24.72-10.6-48.55-31.58-41.19-60.55,18.7-72.38,200.57-105.67,266.2-101.79,13.53.3,36.17,7.48,46.6-5.02,11.92-20.89-34.38-23.9-46.49-25.49-86.71-6.43-184.4-4.42-260.89,41.96-33.66,20.98-61.36,54.33-54.42,96.46,9.88,56.31,70.27,82.6,120.88,91.34,73.54,12.9,150.23-3.54,215.39-38.72,38.64-21.32,75.16-51.16,94.23-91.94,9.25-20.28,14.24-43.4,10.47-65.6-4.38-22.09-17.83-41.01-30.99-58.56-17.31-23.25-37.71-45.47-46.61-73.5-14.66-47.11,20.12-84.28,61.53-100.88,26.97-11.06,56.84-16.14,85.89-12.74,7.11,1.05,14.66,2.57,20.33,7.24,6.4,5.33,3.84,14.37-2.59,18.26-4.51,3.15-9.79,4.91-14.79,7.15-1.64.78-3.38,1.53-4.68,2.9-1.49,1.51-.37,3.73.81,5.03,2.56,2.7,6.44,3.8,10.07,3.8.59-.04,1.19-.11,1.8-.2,1.96-.23,4.13-.78,6.39-1.62.22-.08.44-.16.67-.25ZM957.32,52.07c3.09-2.02,6.04-4.41,8.6-7.05-2.53,2.64-5.47,5.03-8.6,7.05ZM956.49,52.6c.06-.03.11-.07.17-.1-.06.03-.11.07-.17.1ZM969.33,16.47c-1.93-2.14-4.41-4.12-7.35-5.91,2.8,1.67,5.33,3.62,7.35,5.91ZM970.04,17.31c-.14-.17-.27-.33-.41-.49.14.16.28.33.41.49Z"/><path class="cls-4" d="M1125.15,528.59c-2.61-13.61-7.27-24.13-10.4-30.34,20.67-30.32,36.76-56.42,39.88-61.52,5.03-8.22,9.34-15.48,13.15-21.88,10.09-16.98,17.37-29.24,28.35-43.14,5.75-7.27,11.9-15.28,18.28-23.8,6.1-8.12,12.05-16.22,17.69-24.07,5.47-7.63,10.02-14.34,13.5-19.95,5.04-8.11,6.05-11.24,6.05-13.66,0-3.83-.84-7.69-2.5-11.51-1.91-4.35-4.18-7.14-6.95-8.54-.85-.2-1.7-.4-2.54-.61-4.83,0-9.37,3.41-14.72,11.07-4.12,5.89-8.61,13.26-13.31,21.87-9.64,17.34-17.92,32.65-24.62,45.48-8.02,15.36-12.2,21.08-14.3,23.18l-.42.47c-1.19,1.49-3.12,3.15-5.72,4.94-2.95,2.03-6.1,3.97-9.37,5.79-3.17,1.76-6.22,3.2-9.05,4.27-3.2,1.2-4.84,1.38-5.54,1.38-.27,0-.47-.02-.6-.04-1.83-3.58-3.98-9.15-3.62-15.84.55-10.18,6.63-17.33,9.39-20.67,10.21-12.29,24.33-31.53,42.47-56.69l.74-1.3v-1.5c-.31-2.75-1.34-4.34-2.15-5.24-3.95-4.42-13.28-4.29-22.81,1.14-1.47.99-2.82,2.1-4.02,3.29-1.14,1.14-2.51,2.71-4.18,4.8l-.32.45c-13.33,20.56-24.92,38.76-34.43,54.11-10.09,16.27-15,28.48-15,37.34,0,8.07,3.74,12.56,6.88,14.91,5.47,4.1,12.45,4.63,16.16,4.59,6.53-.08,16.37-3.43,27.42-9.16-7.04,12.13-14.57,24.8-22.49,37.86-9.29,15.32-19.15,30.8-29.41,46.14-5.74-9.44-13.18-18.27-23.47-26.24-39.86-30.85-95.63-30.19-133.21-15.84-28.22,10.77-69.5,40.03-93.1,87.07-4.2,6.91-22.52,40.44-7.83,78.05,11.31,28.97,38.17,51.19,63.88,52.82,9.83.63,21.87-1.56,28.18-2.92,9.74-2.1,19.36-5.38,28.6-9.74,17.54-8.28,34.69-19.64,50.97-33.77,16.14-14,32.02-30.66,47.2-49.54,8.91-11.07,15.66-19.92,17.38-22.32,4.93-6.84,8.9-12.82,11.82-17.37,1.25,5.01,2.5,10.02,3.76,15.03-.03,12.97-1.52,32.55-9.39,54.48-10.92,30.4-27.81,48.96-43.21,65.75,0,0-36.86,41.18-69.51,50.72-5.54,1.62-7.52,2.07-7.52,2.07-1.83.27-6.15,1.18-9.6,4.8-.65.68-5.08,5.46-3.6,8.4,1.21,2.41,6.2,3.26,12.01,1.2,3.57-.95,10.23-2.83,18.29-5.86,77.51-29.19,151.36-114.85,136.88-190.42ZM895.03,606.36c-20.25-41.56,19.51-107.11,65.06-129.62,17.19-8.5,37.42-12.94,57.82-12.94,7.85,0,15.73.66,23.47,1.99,25.37,4.38,45.5,15.28,55.93,30.14-12.1,17.54-24.77,34.59-37.68,50.73-13.6,16.99-27.85,32.11-42.37,44.93-14.39,12.71-29.35,23.03-44.45,30.68-17.1,8.66-29.37,14.12-43.44,11.34-16.01-3.16-29.02-16.35-34.34-27.26Z"/><path class="cls-2" d="M584.56,646.12c.61-4.29-15.31,0-24.49,4.9-3.06,1.22-5.51,3.06-6.12,4.29-6.12,10.41-31.84,42.86-60.62,62.45-41.02,28.78-117.55,67.35-175.72,67.35-17.14,0-32.45-3.06-45.31-11.02-17.14-10.41-25.1-31.22-25.1-58.16,0-62.45,42.25-158.57,105.92-233.27,19.52-22.96,39.11-43.49,58.48-61.67-6.26-8.54-11.13-17.73-14.54-27.57-38.67,28.17-75.52,61.67-106.39,98.42-37.64,44.6-62.81,84.11-78.4,118.74,6.94-2,17.69-6.08,28.38-14.75,16.65-13.51,23.32-30.16,25.8-37.66.18,5.82-.17,14.49-2.99,24.45-6.09,21.51-19.55,34.35-25.21,39.62-14.45,13.44-29.81,19.19-38.59,21.71-5.64,18.77-8.17,35.82-8.17,51.15,0,48.98,25.71,80.82,57.55,96.12,15.92,7.96,35.51,11.02,55.72,11.02,73.47,0,162.86-41.02,177.56-53.88-24.49,43.47-47.15,86.94-74.08,125.51-25.71-7.35-55.72-11.63-88.78-11.63-17.81,0-47.97,1.14-86.94,10.41-57.57,13.7-169.47,40.31-185.14,110.94-5.96,26.87,2.33,58.64,21.61,78.03,47.64,47.92,153.65.98,186.08-13.21,86.48-37.83,140.67-102.49,171.67-150.07,9.06,5.72,16.92,7.42,21.9,7.98,3.49.39,11.32,1.24,12.86-1.84,1.22-2.45,0-6.12-5.51-9.8-8.57-5.51-18.98-11.02-30-15.31,25.71-35.51,52.65-78.37,86.94-131.02,30-45.31,71.02-96.12,71.64-102.25ZM239.86,1001.23c-20.2,6.73-42.86,10.41-63.06,10.41-37.35,0-67.35-11.63-66.74-36.74,1.22-30.61,51.43-69.19,123.68-86.94,33.06-8.57,63.06-11.63,88.78-11.63,31.22,0,56.33,4.9,76.53,10.41-40.41,53.88-86.33,90-159.19,114.49Z"/><path class="cls-4" d="M898.38,615.56c.67.73,1.48,1.41,2.41,2.05,32.62-42.69,72.22-85.13,89.37-81.47,16.48,3.66-10.71,43.91-44.87,85.33,5.02-1.08,10.05-2.63,15.07-4.65,27.4-34.52,50.32-68.73,50.32-85.8,0-5.92-2.76-9.86-8.68-11.05-24.68-5.48-66.77,33.5-109.55,86.43,1.26,3.15,3.2,6.17,5.93,9.17Z"/><path class="cls-4" d="M898.68,615.29c.69.75,1.49,1.4,2.34,1.98,0,0-.56.09-.56.09,17.42-22.41,33.7-46.08,54.39-65.83,8.52-7.68,19.92-17.82,31.91-18.99,7.9-.57,12.72,4.83,11.28,12.52-1.35,7.53-5.31,14-9.09,20.31-2.54,4.07-5.23,8.01-7.98,11.89-7.62,10.73-17.66,23.54-25.77,33.97,0,0-8.81,11.13-8.81,11.13,0,0-1.4-2.3-1.4-2.3,5.05-1.15,9.95-2.88,14.7-4.92,0,0-.73.55-.73.55,7.92-10.88,62.44-83.7,43.78-91.14-19.45-5.83-50.72,23.32-64.82,35.68-15.93,14.41-31.27,29.82-45.08,46.47,0,0,.08-.5.08-.5,1.27,3.37,3.35,6.39,5.77,9.09h0ZM898.09,615.83c-2.5-2.71-4.65-5.81-6.1-9.26,0,0-.11-.26-.11-.26l.19-.24c9.83-12.43,20.33-26.13,30.52-38.15,16.4-19.32,50.87-55.87,78.28-52.46,42.99,7.54-26.42,87.18-39.1,102.46,0,0-.34.4-.34.4,0,0-.4.15-.4.15-6.26,2.4-12.92,3.95-19.5,5.21,10.1-11.76,19.94-23.81,28.72-36.58,7.79-11.47,15.57-23.53,20.22-36.59.68-2.11,1.27-4.25,1.44-6.22.13-1.47.09-3.2-.81-4.11-5.02-3.41-16.41,4.55-20.91,7.78-11.19,8.31-21.37,17.91-31.43,27.69-13.53,13.26-26.36,27.4-37.89,42.52-1-.68-1.96-1.43-2.79-2.34h0Z"/><path class="cls-4" d="M923.49,756.28c-8.68,9.07-26.43,27.22-46.55,43-15.78,12.23-50.89,40.24-68.25,29.19-5.92-3.55-8.29-9.86-8.29-18.15,0-12.62,5.92-29.99,14.2-48.92,21.05-13.25,57.52-43.48,103.69-94.82-1.67.06-3.35.1-5.03.1-2.41,0-4.77-.14-7.11-.35-38.09,41.29-69.3,67.46-83.66,78.5,14.2-27.62,30.77-57.6,44.19-78.51,2.19-3.49,4.57-7.17,7.1-10.97-3.67-2.48-7.5-5.91-10.74-10.63-2.75,3.75-5.48,7.54-8.19,11.34-18.54,25.64-83.64,117.18-83.64,164.12,0,12.63,4.73,22.09,15.78,26.04,3.55,1.18,7.1,1.97,11.05,1.97,25.25,0,58.78-22.88,77.33-36.69,22.09-16.57,44.98-36.69,55.63-48.53,10.26-11.44.39-14.99-7.5-6.71Z"/><path class="cls-4" d="M923.78,756.56c-18.38,19.37-37.96,37.65-59.22,53.85-13.02,9.71-31.8,23.93-48.78,23.14-18.53-2.06-20.39-20.04-17.45-35.02,2.67-13.75,7.88-26.85,13.44-39.55,10.05-6.31,19.57-13.62,28.94-21.15,27.19-22.15,52.42-46.7,76.37-72.32,0,0,1.27,2.73,1.27,2.73-1.92,0-4.28.07-6.15-.03,0,0-6.18-.37-6.18-.37,0,0,1.22-.47,1.22-.47-6.6,6.95-13.27,13.84-20,20.66-22.1,22.14-44.98,43.64-69.66,62.91,8.74-17.71,17.77-35.36,27.19-52.73,8.18-15.2,16.94-30.1,26.27-44.64,0,0,.9,4.54.9,4.54-4.58-2.99-8.58-6.9-11.74-11.4,0,0,5.61.08,5.61.08-24.56,34.41-104.29,146.27-88.24,185.93,4.44,10.37,17.15,12.98,27.31,11.23,37.97-5.39,96.82-52.14,124.14-79.6,2.43-2.7,6.93-7.04,5.59-10.87-2.57-3.41-8.67.73-10.83,3.1h0ZM923.2,756.01c2.36-2.42,5.43-4.68,9-4.7,5.01.21,3.99,5.51,1.88,8.48-1.2,1.96-2.77,3.63-4.28,5.28-6.1,6.59-12.58,12.79-19.21,18.82-6.6,6.07-13.33,11.99-20.21,17.75-23.47,19.53-70.69,57.79-102.64,48.89-10.58-2.63-18.02-11.17-19.84-21.79-8.49-48.85,62.99-146.05,92.36-186.04,0,0,2.92-3.92,2.92-3.92,0,0,2.69,4.01,2.69,4.01,2.58,3.85,5.92,7.18,9.74,9.85,0,0,2.68,1.87,2.68,1.87-.98,1.51-7.72,11.57-8.89,13.35-16.45,25.12-31.23,51.28-45.39,77.76,0,0-2.56-2.13-2.56-2.13,30.61-23.24,58.27-50.22,84.06-78.66,0,0,.77.03.77.03l5.96.23c3.01,0,6.75-.15,9.77-.26-24.04,27.59-48.97,54.57-76.96,78.26-9.04,7.64-18.42,14.9-28.53,21.37l1.37-1.6c-3.47,8.09-6.88,16.2-9.56,24.48-3.14,10.42-8.13,26.2-1.49,35.7,5.07,6.64,14.13,6.06,21.58,3.77,16.7-5.37,31.24-16.07,45.31-26.39,17.88-13.16,34.1-28.43,49.47-44.41h0Z"/><path class="cls-3" d="M1355.64,375.72c-2.4.9-4.21,1.2-6.31,1.2-2.71,0-4.51-.6-6.61-1.8,5.11,9.62,5.11,24.95-1.2,39.08-10.22,23.45-31.86,39.98-42.08,37.27-9.02-2.41-15.03-15.33-7.52-37.57,6.01-16.83,18.64-31.86,33.07-38.77,2.1-1.2,5.41-2.71,6.01-2.1.3.3-1.5,1.2-3.61,3.61-10.22,10.52-21.64,30.06-27.05,49.3-3.61,12.02-3.91,20.44.6,22.24,4.21,1.8,10.82-2.71,19.24-15.33,6.61-9.62,13.23-22.85,17.13-36.97,3.01-10.82,3.61-19.54-3.31-25.85-2.71-2.7-4.21-4.21-4.51-5.11-.6-1.5,0-3.61,2.1-4.51,2.41-1.2,3.91.6,5.11,2.71,1.8,3.61,3.91,5.71,5.41,7.21,1.5,1.8,3.61,3.01,7.22,3.61,1.8.3,3.31.3,5.71-.3,1.5-.3,2.7-1.2,3.01-.3.3.6-.9,1.5-2.41,2.41Z"/><path class="cls-3" d="M1398.24,391.35c-.6.3-2.7,1.8-3.61.9-.6-.3.3-.9,1.5-3.01,1.2-2.1,2.1-4.21,2.41-7.21.6-3.01-.3-5.11-2.1-5.41-1.8-.3-4.21.9-5.41,2.1-3.61,3.01-6.61,5.71-9.32,8.72-6.01,6.61-11.12,14.13-15.33,20.44-4.51,7.51-15.93,34.57-21.34,40.58-.9,1.2-1.8,1.5-3.01,3.01-1.2,1.2-4.51,3.31-6.31,3.91-1.5.6-3.91.9-4.81-.3-.3-.6,1.2-1.2,2.71-3.31,5.41-9.02,12.02-23.45,17.43-37.27,7.82-19.24,10.82-30.06,12.32-39.98-1.5.6-3.31,1.2-5.71,1.5-.6,0-2.1.3-2.4-.6-.3-1.2.9-1.5,1.8-1.8,3.91-1.2,13.83-5.11,17.43-7.82,1.2-.6,2.4-.6,3.01-.3.9.9.6,1.8.3,3.31-2.41,10.82-8.72,28.26-13.23,37.57,5.11-7.51,11.12-16.23,16.83-22.54,5.41-5.71,8.72-9.02,14.13-12.32,2.4-1.5,6.01-3.31,9.32-3.31,6.01,0,6.01,4.81,5.71,7.21-1.2,7.22-6.91,12.63-12.32,15.93Z"/><path class="cls-3" d="M1051.03,496.68c4.6,0,10.94-.57,19.01-1.73,8.06-1.15,16.7-2.44,25.93-3.89,9.21-1.43,18.71-2.73,28.52-3.89,9.79-1.15,18.71-1.73,26.79-1.73,3.46,0,5.18.86,5.18,2.59s-.3,3.17-.86,4.32c-3.16,6.68-6.6,13.86-10.3,21.5,1.78.77,4.41,1.44,8.68,1.44,27.94,0,44.16-13.59,58.07-37.49-6.23-.09-12.66-.14-19.28-.14-24.2,0-44.51.43-60.93,1.3-16.42.86-33.85,1.3-52.28,1.3-14.41,0-23.48-.28-27.22-.86-3.75-.57-6.2-1.73-7.35-3.46-.58-1.73-1.44-2.59-2.59-2.59-3.46,3.46-5.19,8.36-5.19,14.69,0,5.77,4.6,8.64,13.83,8.64Z"/><path class="cls-3" d="M1310.71,489.76c-12.96-5.19-29.38-8.49-49.26-9.94-4.91-.35-10.01-.66-15.29-.93-1.64,2.66-3.31,5.24-5,7.75,5.76.34,11.51.93,17.27,1.82,9.21,1.45,17.57,4.19,25.06,8.21,7.48,4.04,13.53,9.65,18.15,16.85,4.6,7.21,6.91,16.28,6.91,27.22,0,13.83-2.46,26.79-7.35,38.89-4.9,12.1-11.38,23.05-19.44,32.84-8.08,9.8-17.15,18.3-27.22,25.49-10.09,7.21-20.31,13.11-30.68,17.72-4.62,1.73-10.23,3.03-16.85,3.89-7.72,1.01-13.78,1.29-17.72,1.3-12.7.03-46.6-.95-91.86-3.07-5.67,3.95-11.34,7.9-17.01,11.85,4,1.2,8,2.4,12.01,3.6,21.86-2.12,63.84-5.54,108.97-4.61,5.49.11,33.83,1.19,53.58,15.12,12.67,8.94,19.01,21.75,19.01,38.46,0,12.86-1.92,22.62-3.97,29.92,0,0-3.7,13.19-10.29,24.96-12.69,22.64-64.69,67.13-131.29,60.7-43.05-4.16-72.61-27.7-85-39,7.16-25.64,15.35-45.14,21.68-58.47,1.44-3.03,3.81-7.71,8.53-17.09,7.92-15.74,15.29-30,25.78-50.28,37.47-72.47,52.5-99,61.36-114.07,3.16-5.37,6.46-10.99,9.89-16.8-5.8,1.35-11.67,2.06-17.6,2.06-8.32,0-14.93-2.38-19.83-5.73-5.21,10.5-10.54,21.05-16.1,31.71-7.21,13.83-14.41,27.22-21.6,40.19-7.21,12.96-13.39,24.63-18.58,35-6.91,12.1-14.56,25.79-22.9,41.05-8.36,15.27-17,31.11-25.93,47.53-8.94,16.42-18.3,33.14-28.09,50.12-9.8,17-19.31,33.27-28.52,48.83-1.73,2.89-3.89,6.2-6.48,9.94-2.59,3.75-7.64,9.66-15.12,17.72l5.19,4.32c7.78-3.67,17.11-8.91,26.79-16.42,13.21-10.25,22.43-21.1,28.54-29.59,16.48,19.01,45.64,47.44,90,67,16.65,7.34,30.41,13.41,50,15,63.54,5.16,111.35-42.92,125.09-57.14,14.67-15.19,29.41-30.75,37.57-56.36,13.08-41.02-.4-77.01-7.57-86.25-3.9-5.03-8.59-9.3-8.59-9.3-4.07-3.7-8.55-6.94-13.44-9.71-8.64-4.89-17.86-8.35-27.65-10.37-9.8-2.01-18.73-3.89-26.79-5.62-1.16,0-1.73-.57-1.73-1.73,0-1.73.57-2.59,1.73-2.59,22.47-5.18,41.48-12.53,57.04-22.04,15.56-9.5,28.09-19.58,37.59-30.25,9.51-10.65,16.27-21.45,20.31-32.41,4.02-10.94,6.05-20.44,6.05-28.52,0-15.55-3.32-27.94-9.94-37.16-6.63-9.21-16.42-16.42-29.38-21.6Z"/><path class="cls-4" d="M1360.99,293.75c-2.32-2.63-5.93-4.08-10.16-4.08-20.25,0-42.21,15.96-60.26,43.8-6.53,10.06-13.26,24.53-17.73,35.56-3.33.01-6.89.06-10.31.31-4.7.29-9.15.57-11.04,4.98l-.11.29c-.47,1.41-1.04,4.9,3.87,6.79.29.11.62.24.77.33l.25.14c2,1,4.07,2.03,4.55,8.1.26,2.9-.01,7.81-1.01,11.04-4.2,11.99-6.86,19.4-17.05,43.98-22.78,54.67-39.96,87.86-86.41,87.86-5.79,0-9.54-.4-12.76-2.52-3.19-2.1-5.11-5.25-6.26-7.14-.93-1.53-2.87-4.71-6.2-3.12-3.53,1.68-2.37,6.08-.75,10.82,1.03,3.02,2.38,6.99,5.27,7.55,3.55,4.23,10.19,8.24,19.81,8.24,40.82,0,79.34-36.12,105.65-99.07,7.29-17.06,11.2-27.1,16.62-40.99,2.88-7.38,6.12-15.69,10.48-26.62,3.91-.24,7.72-.44,12.12-.44,2.24,0,4.24.11,5.85.2,4.07.22,7.91.44,8.9-3.26.32-1.14.13-2.36-.54-3.37-1.07-1.61-2.79-2.9-14.26-3.79-2.41-.16-4.99-.33-7.4-.45,4.15-10.41,8.49-21.13,14.42-31.7,7.19-14.39,22.88-35.8,36.62-35.8,1.5,0,2.63.32,3.16.89.59.63.65,1.78.6,2.63v.23c0,2.26-.8,3.75-3.42,6.36-.35.35-.73.61-1.14.89-2.36,1.61-3.19,3.51-2.48,5.66.41,1.23,1.36,2.18,2.6,2.61,2.67.92,6.1-1.11,7.19-1.83,5.83-3.57,12.32-9.7,13.13-16.23.42-3.35-.5-6.49-2.59-8.86ZM1266.72,395.89l-1.34-.41c1.08-4.86,1.02-13.85-2.54-17.7l-.93-1.01,1.36-.17c2.45-.31,7.56-.61,10.31-.61h1.04l-7.9,19.9Z"/><path class="cls-1" d="M1406.49,734.46c21.34,0,29.87,10.67,30.3,26.89,1.28,39.69-53.35,81.94-94.32,81.94-21.34,0-30.3-11.1-30.73-27.31-1.71-40.54,55.48-81.52,94.75-81.52ZM1334.79,826.21c.43,7.26,3.41,11.95,10.24,11.95,20.91,0,69.14-55.06,68.29-87.06-.43-7.25-3.41-11.52-9.82-11.52-28.17,0-69.57,58.9-68.71,86.64Z"/><path class="cls-1" d="M1518.3,734.46c21.34,0,29.87,10.67,30.3,26.89,1.28,39.69-53.35,81.94-94.32,81.94-21.34,0-30.3-11.1-30.73-27.31-1.71-40.54,55.48-81.52,94.75-81.52ZM1446.6,826.21c.43,7.26,3.41,11.95,10.24,11.95,20.91,0,69.14-55.06,68.29-87.06-.43-7.25-3.41-11.52-9.82-11.52-28.17,0-69.57,58.9-68.71,86.64Z"/><path class="cls-1" d="M1612.04,836.68c-.02-.39-.04-2.72.66-5.64.63-2.61,1.74-5.32,3.55-8.04l11.05-17.88c0-1.05.53-1.58.53-2.63,0-5.79-5.26-8.42-9.47-8.94-16.31,3.68-32.09,5.26-43.13,6.31l-6.31,9.99-24.2,38.4c-2.1,3.16-4.21,4.73-6.31,4.73-5.78,0-9.47-11.05-9.47-16.83-.53-10.52,5.78-23.14,13.15-34.19l65.75-104.68c-8.67.61-19.34,1.1-31.56,1.05-132.95-.5-269.46-63.43-264.75-97.71,4.54-33.04,141.49-48.58,247.92-35.37,26.86,3.33,49.54,8.22,66.81,12.62l-3.68,4.74c-16.01-3.92-36.9-8.2-61.55-11.05-91.49-10.56-212.1,1.31-215.88,29.06-4.08,29.96,126.69,88.16,255.86,85.61,5.45-.11,10.25-.31,14.2-.52l3.68-5.79c89.94-138.01,200.15-198.73,262.89-169.34,31.89,14.94,57.71,56.07,50.42,90.04-12.59,58.63-124.16,97.5-290.16,92.97l-25.77,41.03c12.1-8.42,26.3-13.15,42.61-13.15,13.15,0,33.67,3.16,33.67,21.04,0,19.46-17.36,32.61-39.45,41.56,5.79,3.68,8.42,8.94,8.42,13.68,0,8.94-14.73,25.25-14.73,33.14,0,1.22.44,2.54,1.45,3.81,5.82,7.41,26.62-.53,28.27-1.18,21.66-8.48,31.46-32.36,34.82-42.02l7.2,14.41c-3.33,5.96-27.02,47.12-63.63,48.02-19.37.48-42.54-10.31-42.83-17.26ZM1662.54,743.57c0-8.42-4.73-12.1-12.1-12.1-27.35,0-57.86,31.56-71.54,60.49,22.62-1.05,83.64-15.78,83.64-48.39ZM1653.07,676.24l-4.73,6.84c78.38-8.94,253.01-37.35,253.01-124.14,0-32.09-29.46-42.61-53.13-42.61-75.22,0-155.7,97.31-195.15,159.91Z"/><path class="cls-5" d="M156.41,566.88c14.79,0,22.19,9.41,22.19,20.17s-8.74,18.15-11.43,18.15c-2.02,0-4.71-2.02-4.71-3.7,0-3.7,6.39-6.72,6.39-14.12,0-5.71-3.7-11.43-12.44-11.43-23.53,0-80.67,41.35-80.67,70.26,0,3.7,2.02,5.71,5.04,5.71,6.39,0,22.86-13.11,31.6-21.85,4.37-4.37,5.71-8.74,9.41-12.77,4.03-4.37,18.15-9.75,22.52-9.75,3.7,0,5.04,2.02,5.04,5.04,0,2.69-.67,6.72-.67,10.42,0,16.13,8.74,25.55,29.58,25.55,18.82,0,38.66-9.08,67.9-22.86,5.38-2.35,8.74,2.02,3.03,5.38-33.28,15.8-57.14,28.24-88.41,28.24-19.83,0-31.6-5.38-42.02-22.19-12.1,9.08-37.65,27.23-54.79,27.23-11.76,0-16.81-5.71-16.81-14.12,0-14.45,15.13-35.3,36.3-52.44-21.18,8.74-54.12,23.19-75.97,33.28-5.38,2.35-8.74-2.02-3.03-5.38,46.05-22.52,119.67-58.83,151.94-58.83Z"/></svg>